<svg xmlns="http://www.w3.org/2000/svg" xmlns:svg="http://www.w3.org/2000/svg" version="1.1" id="svg5" viewBox="21.1 66.4 170.97 135.14">
  <defs id="defs2"/>
  <g id="layer1">
    <path style="fill:#00ff00;stroke-width:0.0925018" d="m 39.201156,200.96763 c -0.930538,-0.6932 -3.664904,-3.42932 -4.725723,-4.72873 -1.937199,-2.37292 -3.482595,-4.57738 -5.13509,-7.32503 -1.392376,-2.31515 -3.64116,-7.09613 -4.503193,-9.57394 -0.519752,-1.49397 -1.969427,-6.40059 -2.040083,-6.90496 -0.03458,-0.24691 -0.183883,-1.00199 -0.331759,-1.67795 -1.065222,-4.86926 -1.428795,-9.27938 -1.355229,-16.43884 0.03787,-3.68511 0.0654,-4.26695 0.29132,-6.15138 0.406766,-3.39309 0.705397,-5.17302 1.365728,-8.14015 0.555759,-2.49725 1.662342,-5.78974 2.088473,-6.21398 0.275652,-0.27444 0.324694,-0.28844 3.031513,-0.86539 4.521897,-0.96382 8.821796,-1.92992 10.11164,-2.27185 1.881933,-0.49891 5.0406,-1.25174 5.776739,-1.37682 1.362638,-0.23152 8.683679,-2.03548 12.55594,-3.09387 0.515755,-0.14097 0.983802,-0.21768 1.133036,-0.18571 0.279597,0.0599 0.531999,0.35521 0.531999,0.62241 0,0.1746 -0.509575,1.10447 -1.089918,1.98891 -0.365652,0.55725 -1.516319,3.01584 -2.21661,4.73616 -0.679297,1.66875 -1.606303,4.57997 -2.488938,7.81641 -0.124874,0.45788 -0.390064,1.33203 -0.589314,1.94253 -0.199243,0.61052 -0.448735,1.60954 -0.554424,2.22005 -0.105682,0.61051 -0.272337,1.56791 -0.370346,2.12755 -0.368239,2.1027 -0.48103,3.76067 -0.52546,7.72389 l -0.04305,3.83883 0.336889,2.22005 c 0.698107,4.60051 1.58465,8.03439 3.152396,12.21024 1.257625,3.34983 1.938767,4.84866 3.257906,7.1689 1.487399,2.61619 4.462033,6.63747 6.334328,8.56311 l 1.324854,1.36259 1.543206,-0.29571 1.543198,-0.2957 0.812122,-0.6063 c 0.446665,-0.33347 0.964295,-0.68425 1.1503,-0.77951 0.337414,-0.17281 2.227612,-1.865 3.454396,-3.09252 0.356134,-0.35635 1.063774,-0.99792 1.572531,-1.42572 0.508765,-0.4278 1.302976,-1.13526 1.764919,-1.57214 1.19206,-1.12739 3.632871,-3.36186 5.311474,-4.86243 1.783863,-1.59468 10.26311,-10.06335 11.214668,-11.20068 0.909294,-1.08681 1.670325,-2.1507 1.821916,-2.54695 0.0662,-0.17305 0.173016,-0.43951 0.23736,-0.59214 0.208777,-0.49525 0.306395,-0.91262 0.367805,-1.57253 0.185133,-1.9894 0.228306,-2.85146 0.222357,-4.44009 -0.0089,-2.37765 0,-2.10545 -0.153821,-4.85635 -0.07525,-1.34821 -0.151371,-2.82593 -0.169159,-3.28382 -0.03538,-0.91071 -0.25325,-3.39733 -0.459612,-5.24563 -0.07666,-0.68656 -0.131307,-2.09098 -0.131391,-3.37631 0,-1.88082 -0.114507,-5.16242 -0.224761,-6.44778 -0.116025,-1.35273 -0.152916,-1.90296 -0.20208,-3.01439 -0.08979,-2.02953 -0.121621,-4.93155 -0.108568,-9.89769 0.02006,-7.62747 0.01204,-8.46291 -0.101439,-10.59147 -0.05966,-1.11927 -0.16863,-3.57519 -0.242133,-5.45761 -0.07351,-1.88241 -0.156929,-3.73476 -0.185382,-4.11633 -0.199777,-2.678823 -0.255314,-3.289013 -0.370434,-4.070083 -0.07123,-0.48332 -0.173413,-1.4199 -0.227064,-2.08129 -0.05364,-0.66139 -0.158697,-1.72285 -0.233456,-2.3588 -0.17567,-1.49456 -0.35937,-3.74192 -0.342184,-4.18629 0.01668,-0.43117 0.20766,-0.81129 0.55406,-1.10277 0.62594,-0.5267 2.769073,-1.88334 4.181136,-2.64675 0.83945,-0.45384 2.0466,-1.12626 2.68255,-1.49428 1.000206,-0.57881 9.018006,-4.60877 10.730216,-5.3933 0.33069,-0.15153 1.03833,-0.47399 1.57253,-0.71658 0.5342,-0.24259 1.72053,-0.78385 2.6363,-1.20278 0.91577,-0.41895 1.97723,-0.8968 2.3588,-1.06189 0.38157,-0.16509 0.83428,-0.38566 1.00602,-0.49014 l 0.31226,-0.18997 -0.40001,-0.20407 c -0.21999,-0.11223 -0.61027,-0.34265 -0.86727,-0.51204 -0.257,-0.16939 -0.80027,-0.44903 -1.20727,-0.62141 -1.14141,-0.48345 -0.82605,-0.58956 -7.30766,2.45909 -3.05151,1.43529 -6.96912,3.48616 -8.787666,4.60035 -0.55964,0.34288 -1.45459,0.87247 -1.98879,1.17688 -0.5342,0.3044 -1.283463,0.74046 -1.665033,0.96903 -0.98807,0.59187 -2.102496,1.22025 -3.330069,1.87768 -1.292955,0.69246 -3.558861,1.99417 -4.230119,2.43011 -0.06345,0.0412 -0.180064,0.56301 -0.263631,1.17959 -0.12349,0.91124 -0.139863,1.61003 -0.09307,3.97327 0.05058,2.55499 -0.078,12.165303 -0.181924,13.597773 -0.12248,1.68822 -0.171194,12.84575 -0.08381,19.19413 0.05666,4.1159 0.04385,5.12432 -0.08403,6.61389 -0.08299,0.96664 -0.17443,2.06973 -0.203218,2.45129 -0.128281,1.70018 -0.581005,3.78354 -0.991241,4.56149 -0.33631,0.63777 -1.38664,1.65686 -2.22354,2.15741 -0.314518,0.18811 -0.842415,0.53395 -1.173109,0.76851 -0.330694,0.23457 -0.99671,0.65019 -1.480035,0.92358 -0.483317,0.27341 -1.170145,0.6738 -1.526279,0.88978 -0.605498,0.3672 -1.231149,0.70266 -3.653818,1.95903 -2.814668,1.45966 -3.505081,1.83012 -3.885079,2.08463 -0.228943,0.15335 -0.788895,0.48583 -1.24435,0.73884 -0.842218,0.4679 -2.735026,1.68549 -4.074512,2.62104 -0.94757,0.66182 -2.488293,1.55176 -2.941844,1.69926 -0.449492,0.14617 -0.759517,0.0665 -0.965187,-0.24793 -0.151356,-0.23142 -0.159958,-0.55129 -0.119909,-4.46174 0.05767,-5.62953 0.03337,-9.84842 -0.08174,-14.20265 -0.05242,-1.98417 -0.133754,-5.39749 -0.180673,-7.58516 -0.04695,-2.18767 -0.109957,-4.08164 -0.140084,-4.20883 -0.03015,-0.12719 -0.09731,-1.81304 -0.149308,-3.74633 -0.05197,-1.93328 -0.134031,-3.8897 -0.182286,-4.34758 -0.04822,-0.45789 -0.109881,-2.76813 -0.136933,-5.13386 -0.02707,-2.36573 -0.09219,-4.94653 -0.144734,-5.73511 -0.171658,-2.576363 -0.254022,-3.926513 -0.256497,-4.204463 -0.0015,-0.15023 -0.054,-0.42929 -0.116954,-0.62016 -0.09904,-0.30009 -0.09268,-0.38038 0.04702,-0.59364 0.08887,-0.13563 0.240597,-0.26726 0.337166,-0.29252 0.09657,-0.0253 0.175581,-0.0778 0.175581,-0.11684 0,-0.14579 3.815434,-2.75474 6.213744,-4.24888 0.525332,-0.32728 1.40154,-0.87965 1.947114,-1.22747 0.54559,-0.34782 1.773552,-1.03978 2.728809,-1.53769 0.955265,-0.49791 1.911707,-1.01665 2.12544,-1.15276 0.551259,-0.35105 2.912219,-1.72573 3.681486,-2.14356 0.356126,-0.19343 1.126211,-0.61164 1.71128,-0.92935 1.069248,-0.58062 1.720924,-0.9409 3.515071,-1.94331 0.534198,-0.29846 1.79016,-1.0349 2.791032,-1.63652 1.000861,-0.60162 2.520202,-1.45096 3.376318,-1.88742 0.856105,-0.43646 1.681435,-0.86951 1.834062,-0.96234 0.152628,-0.0928 0.548074,-0.27041 0.878768,-0.39462 0.330694,-0.12421 1.400173,-0.64898 2.376615,-1.16616 0.97645,-0.51718 1.93048,-1.00514 2.12007,-1.08436 0.18958,-0.0792 0.86969,-0.44803 1.51136,-0.81958 0.641656,-0.37155 1.727276,-0.93237 2.412516,-1.24625 2.04042,-0.93463 4.78755,-2.30196 5.81376,-2.89369 0.52817,-0.30455 1.56881,-0.85454 2.31255,-1.22221 0.74373,-0.36767 1.70606,-0.85735 2.1385,-1.08819 1.26447,-0.67498 1.31122,-0.6985 1.97681,-0.9944 0.34955,-0.15539 0.88964,-0.34838 1.2002,-0.42885 0.31057,-0.0805 0.83467,-0.27255 1.16465,-0.42684 0.87204,-0.40771 1.26473,-0.34653 2.71533,0.42301 0.62452,0.33131 1.42181,0.81372 1.77174,1.07204 0.34993,0.25832 0.78564,0.56098 0.96822,0.67259 0.18261,0.11161 0.66957,0.45428 1.08214,0.76148 1.127,0.83918 2.26824,1.65829 2.57993,1.8517 0.15263,0.0947 0.46483,0.32711 0.69377,0.51642 0.22894,0.18932 0.65185,0.47546 0.9398,0.63586 0.28796,0.1604 0.70421,0.45023 0.92502,0.64406 0.42038,0.36902 1.28538,0.9643 2.44934,1.68558 0.37942,0.23512 0.84478,0.552 1.03414,0.70417 0.18936,0.15217 0.52628,0.36952 0.7487,0.483 0.22242,0.11346 0.59622,0.38057 0.83064,0.59355 0.86671,0.78742 1.4732,1.2553 2.60079,2.00639 0.63554,0.42333 1.31138,0.90709 1.50186,1.075 0.19048,0.16791 0.8773,0.6622 1.52628,1.09842 0.64897,0.43622 1.51814,1.05053 1.93148,1.36514 0.41334,0.31461 1.13698,0.84117 1.6081,1.17013 0.4711,0.32896 1.16027,0.87399 1.53149,1.21117 0.37123,0.33718 1.04205,0.86731 1.49074,1.17807 0.44866,0.31077 1.41934,1.04573 2.15704,1.63325 1.32077,1.05188 2.88745,2.1342 8.00142,5.52766 1.42453,0.94527 2.79817,1.88288 3.05256,2.0836 1.02288,0.80705 1.99516,1.51099 3.00631,2.17661 0.58508,0.38515 1.56327,1.05633 2.17379,1.49154 0.61052,0.4352 1.40141,0.96443 1.75753,1.17607 0.35614,0.211653 0.7724,0.499743 0.92503,0.640203 0.15262,0.14047 0.52726,0.39248 0.83251,0.56003 0.57927,0.31795 2.83499,1.83064 3.79258,2.54331 0.30526,0.22718 0.72151,0.50142 0.92502,0.6094 0.2035,0.10798 1.11163,0.74199 2.01807,1.4089 1.73283,1.27494 2.56521,1.86789 4.08705,2.91148 0.50876,0.34887 1.09799,0.77919 1.3094,0.95624 0.21142,0.17705 1.10637,0.80916 1.98879,1.40469 0.88242,0.59552 1.85416,1.27006 2.15942,1.49898 1.88157,1.41105 3.31416,2.44416 3.66548,2.64336 0.22253,0.12616 0.7168,0.41823 1.09837,0.64904 0.38156,0.2308 1.00596,0.60071 1.38752,0.82201 0.57624,0.3342 2.04772,1.26529 2.3476,1.48546 0.0447,0.0328 -0.0874,0.59505 -0.29365,1.24938 -0.20623,0.65433 -0.42502,1.41864 -0.48619,1.69846 -0.0612,0.27982 -0.25565,0.98746 -0.43214,1.57253 -0.1765,0.58508 -0.43645,1.50085 -0.57768,2.03504 -0.14123,0.5342 -0.466,1.76216 -0.72174,2.72881 -0.84633,3.19894 -2.21967,10.83684 -2.74432,15.26281 -0.2778,2.34338 -0.44353,4.69157 -0.70184,9.94395 -0.1287,2.61714 -0.10561,6.9989 0.0461,8.74566 0.0749,0.86256 0.18009,2.2343 0.23372,3.04832 0.0536,0.81402 0.15753,1.9171 0.23088,2.45131 0.0734,0.53419 0.15876,1.28346 0.1898,1.66502 0.031,0.38158 0.0982,0.94161 0.14916,1.24452 0.051,0.30292 0.0635,0.84191 0.0277,1.19776 -0.0527,0.52531 -0.11082,0.69282 -0.30873,0.89072 -0.23285,0.23287 -0.30152,0.24647 -1.53816,0.30466 -0.71194,0.0335 -2.2102,0.16735 -3.32948,0.29745 -1.11927,0.13009 -2.51373,0.27776 -3.09881,0.32812 -1.27772,0.11003 -2.57974,0.30008 -3.72983,0.54442 -0.46696,0.0992 -1.6399,0.32985 -2.60654,0.51253 -5.17441,0.97793 -10.52098,2.85088 -15.54032,5.44391 -1.21743,0.62894 -4.52443,2.64008 -6.38263,3.88156 -1.14434,0.76456 -2.13716,1.52475 -3.28382,2.51437 -0.53419,0.46104 -1.26265,1.06267 -1.61878,1.33696 -1.08096,0.83255 -2.12405,1.81957 -3.40038,3.21761 -1.68035,1.84059 -3.20742,3.68983 -3.95318,4.7872 -0.34575,0.50876 -0.85253,1.20355 -1.12619,1.54397 -0.31816,0.39578 -0.66349,0.99388 -0.95776,1.65877 -0.86896,1.96345 -0.85813,1.94716 -1.45037,2.18145 l -0.52767,0.20875 -0.6286,-0.19357 c -0.34573,-0.10645 -1.45177,-0.50107 -2.45785,-0.87692 -1.00609,-0.37586 -2.44218,-0.87276 -3.19132,-1.10423 -0.74913,-0.23148 -2.04888,-0.66432 -2.88834,-0.96189 -1.54251,-0.54678 -3.44407,-1.04934 -6.83877,-1.8074 -1.02272,-0.22838 -2.26465,-0.51788 -2.75984,-0.64334 -0.49519,-0.12545 -1.50392,-0.33665 -2.24163,-0.46931 -4.06549,-0.73113 -5.10482,-0.88302 -7.21514,-1.05444 -4.28321,-0.34794 -4.71509,-0.36632 -12.345659,-0.52547 -3.953826,-0.0825 -7.605171,0.14343 -13.647359,0.8443 -1.042962,0.12098 -2.458242,0.26541 -3.145062,0.32097 -1.165128,0.0942 -3.310735,0.37069 -5.365113,0.69128 -0.483325,0.0754 -1.669655,0.24433 -2.636305,0.37534 -3.077142,0.41706 -8.127072,1.30114 -9.758942,1.70848 -0.381573,0.0952 -1.547098,0.34583 -2.590052,0.55683 -1.042962,0.21101 -2.458242,0.53006 -3.145062,0.709 -2.459479,0.64077 -8.677903,2.42837 -10.21004,2.93505 -1.391168,0.46006 -1.644815,0.51626 -2.329978,0.51626 h -0.768869 z m 93.001364,-8.01917 c 1.13422,-1.88513 3.88102,-5.4469 6.03116,-7.82058 1.67151,-1.84529 5.98814,-6.33246 6.5849,-6.84505 0.35113,-0.30161 0.69377,-0.59781 0.76143,-0.65824 0.10095,-0.0901 0.0635,-0.2282 -0.20877,-0.76877 -0.57291,-1.13767 -1.68751,-3.81542 -2.26347,-5.4379 -1.25111,-3.52435 -1.58331,-4.72825 -2.14046,-7.75705 -0.15909,-0.86489 -0.42931,-2.17611 -0.6005,-2.91381 -0.42305,-1.82316 -0.7837,-3.85837 -0.7837,-4.4225 0,-0.25598 -0.0804,-1.18677 -0.17858,-2.06842 -0.19556,-1.75536 -0.34409,-4.65701 -0.42531,-8.30938 -0.0562,-2.52705 0.0478,-4.05545 0.41207,-6.05475 0.10154,-0.55738 0.17583,-1.02097 0.16509,-1.03019 -0.0107,-0.009 -1.03936,-0.26675 -2.28581,-0.57228 -1.24647,-0.30551 -2.51605,-0.61678 -2.82132,-0.69172 -0.30525,-0.0749 -1.61646,-0.40724 -2.9138,-0.73847 -1.29734,-0.33123 -2.85831,-0.71535 -3.46882,-0.85359 -0.61051,-0.13826 -1.5381,-0.35224 -2.06131,-0.47553 -1.26271,-0.29755 -3.22476,-0.70025 -5.15384,-1.0578 -0.8649,-0.16031 -2.32833,-0.45391 -3.2521,-0.65245 -0.92376,-0.19854 -1.75238,-0.36097 -1.84139,-0.36097 -0.15045,0 -0.15763,0.12178 -0.10223,1.73441 0.0931,2.7112 0.32793,6.78607 0.47303,8.20954 0.0726,0.71227 0.15903,1.85697 0.19206,2.5438 0.0738,1.53489 0.29102,4.41373 0.40825,5.41137 0.17802,1.51491 0.29288,3.00888 0.23812,3.09747 -0.0311,0.0503 -0.0595,0.51312 -0.0632,1.02847 l -0.007,0.93702 -0.53084,0.61358 c -1.08227,1.25091 -2.19165,2.16635 -4.34907,3.58878 -1.73933,1.14679 -2.52886,1.69558 -3.27328,2.27529 -0.99558,0.77531 -2.03645,1.51846 -2.35508,1.68148 -0.17023,0.0871 -0.64212,0.40497 -1.04865,0.7064 -0.40653,0.30142 -0.79049,0.54804 -0.85325,0.54804 -0.0628,0 -0.28579,0.14698 -0.49566,0.32661 -0.20986,0.17963 -0.60731,0.48142 -0.88322,0.67063 -0.27592,0.18923 -0.913,0.65497 -1.41575,1.03498 -0.50275,0.38002 -1.21139,0.90034 -1.57477,1.15627 -0.857896,0.60423 -2.806226,2.16849 -3.455641,2.77443 -0.279817,0.2611 -0.925019,0.80539 -1.433781,1.20954 -0.508758,0.40415 -1.486967,1.2494 -2.173792,1.87832 -0.686827,0.6289 -1.763094,1.54504 -2.391711,2.03585 -1.114231,0.86994 -2.154774,1.7768 -4.42035,3.85242 -1.75439,1.6073 -2.695407,2.44905 -3.449419,3.08554 -0.384993,0.32499 -1.220312,1.07763 -1.85626,1.67253 -0.635956,0.59492 -1.406033,1.30368 -1.711287,1.57503 -0.774434,0.68844 -1.815926,1.68823 -1.784088,1.7127 0.01462,0.0112 0.671752,-0.0331 1.460332,-0.0983 0.788579,-0.0653 2.203859,-0.16251 3.145061,-0.21603 0.941203,-0.0535 2.189985,-0.13792 2.775054,-0.18757 5.349346,-0.45394 14.681806,-0.35842 22.613602,0.23146 4.56304,0.33935 10.72015,1.54495 17.71721,3.46918 1.70435,0.4687 3.46865,0.95318 3.92067,1.07662 0.45202,0.12343 1.18047,0.3606 1.61878,0.52703 0.54354,0.20639 0.8341,0.27415 0.91383,0.21311 0.0643,-0.0492 0.33269,-0.44817 0.59643,-0.88652 z M 166.5474,164.2146 c 0.40701,-0.18979 0.75622,-0.35967 0.77603,-0.3775 0.0373,-0.0335 -0.12919,-1.17296 -0.49865,-3.4138 -0.25412,-1.54118 -0.36419,-2.47774 -0.55992,-4.76384 -0.25353,-2.96114 -0.15168,-9.20652 0.2421,-14.84595 0.4282,-6.13249 1.44612,-11.62551 3.36844,-18.17722 0.18658,-0.63594 0.48581,-1.65578 0.66494,-2.26629 0.17912,-0.61051 0.46359,-1.54709 0.63216,-2.0813 0.16856,-0.53419 0.45598,-1.49159 0.63871,-2.12754 0.18274,-0.63595 0.52305,-1.71821 0.75627,-2.40504 0.65693,-1.9347 0.62747,-1.74779 0.30367,-1.92629 -0.15463,-0.0853 -0.89102,-0.56086 -1.63642,-1.0569 -0.74541,-0.49604 -1.37654,-0.90153 -1.40252,-0.90109 -0.0967,0.002 -0.73299,1.08281 -0.96401,1.63804 -0.1316,0.31628 -0.42664,0.86471 -0.65565,1.21873 -0.229,0.354 -0.41637,0.67326 -0.41637,0.70947 0,0.0362 -0.32865,0.75735 -0.7303,1.60258 -0.77038,1.62108 -1.49762,3.485 -1.89632,4.86027 -0.13161,0.45397 -0.32292,0.91441 -0.42512,1.0232 -0.10221,0.10879 -0.18582,0.26012 -0.18582,0.33628 0,0.24703 -0.35667,0.52991 -0.85452,0.67775 -0.26772,0.0795 -1.23603,0.32958 -2.1518,0.55575 -0.91577,0.22617 -1.97722,0.51838 -2.3588,0.64939 -0.7178,0.24643 -2.4737,0.73749 -5.2726,1.47455 -1.85767,0.4892 -3.71856,0.99095 -5.64262,1.52142 -0.7377,0.20339 -1.75753,0.48017 -2.26629,0.61509 -0.50876,0.13491 -1.81997,0.50944 -2.91381,0.83229 -1.09384,0.32285 -2.8005,0.7957 -3.79258,1.0508 -0.99208,0.2551 -1.9911,0.53113 -2.22004,0.61342 -0.22894,0.0823 -0.85333,0.25258 -1.38752,0.37842 -1.17649,0.27711 -3.60038,0.95388 -3.79259,1.05891 -0.17139,0.0936 -0.24824,0.0666 1.38753,0.48854 1.69559,0.43739 3.06893,0.7581 4.39384,1.02611 2.74838,0.55592 4.83658,1.00313 6.29013,1.34707 5.18614,1.22713 7.91263,1.8066 11.10022,2.35914 1.0684,0.1852 2.46286,0.45754 3.09881,0.60521 0.63596,0.14766 1.40603,0.29619 1.71129,0.33009 0.30526,0.0339 0.69549,0.11861 0.86718,0.18828 0.28999,0.11765 0.30736,0.14801 0.24435,0.42718 -0.11411,0.50563 -0.14636,6.023 -0.0458,7.83943 0.0521,0.94121 0.1551,2.12754 0.22891,2.6363 0.0738,0.50877 0.22028,1.61185 0.32549,2.4513 0.37393,2.98312 1.01044,6.71031 1.44544,8.46392 0.43293,1.74526 1.42161,5.13048 1.64773,5.64176 l 0.22617,0.51143 0.49032,-0.22212 c 0.26969,-0.12219 0.82334,-0.37743 1.23034,-0.56724 z m -50.21238,-34.83633 c 0.39814,-0.1585 1.35936,-0.55658 2.13603,-0.88465 1.89774,-0.80157 4.30997,-1.68883 6.49676,-2.38962 0.99209,-0.31791 2.01192,-0.66957 2.2663,-0.78143 0.25438,-0.11188 1.07905,-0.40619 1.83262,-0.65404 0.75356,-0.24786 1.69014,-0.57595 2.08129,-0.72912 0.39114,-0.15316 1.2107,-0.44273 1.82121,-0.64348 3.67264,-1.20767 5.2823,-2.00667 6.03901,-2.99762 1.22248,-1.60094 2.42979,-4.44562 3.52339,-8.30189 0.92077,-3.24689 1.12205,-4.22483 1.86535,-9.06302 0.23435,-1.52541 0.3393,-6.741713 0.19381,-9.633173 l -0.0588,-1.16926 -0.97127,-0.85851 c -0.5342,-0.47217 -1.28346,-1.08793 -1.66504,-1.36832 -0.38156,-0.2804 -0.90188,-0.68352 -1.15627,-0.89582 -0.93419,-0.77966 -5.27977,-3.98117 -7.49265,-5.52003 -0.66139,-0.45993 -1.57716,-1.11733 -2.03504,-1.46089 -1.05885,-0.79447 -5.13967,-3.52044 -5.95144,-3.97554 -0.33891,-0.19 -1.30302,-0.767 -2.14247,-1.28223 -0.83946,-0.51523 -1.7136,-1.04179 -1.94254,-1.17013 -0.22894,-0.12834 -0.6679,-0.39174 -0.97546,-0.58534 -0.30755,-0.1936 -0.63822,-0.38233 -0.73482,-0.4194 -0.16614,-0.0637 -0.16717,-0.0581 -0.0189,0.10575 0.20183,0.22303 0.19803,0.60759 -0.0198,1.99478 -0.25887,1.64878 -0.37849,2.64706 -0.37909,3.1637 0,0.25173 -0.0423,0.70746 -0.0934,1.01272 -0.0511,0.30525 -0.1344,1.05303 -0.18519,1.66173 -0.0508,0.6087 -0.2388,2.02398 -0.41779,3.14506 -0.179,1.1211 -0.40796,2.97493 -0.50882,4.11963 -0.10084,1.14471 -0.2849,2.93463 -0.40902,3.97758 -0.23435,1.96926 -0.38003,3.4643 -0.46876,4.8101 -0.0285,0.43245 -0.13346,1.535533 -0.23325,2.451303 -0.10493,0.96307 -0.22183,3.01047 -0.27729,4.85635 -0.0991,3.29731 -0.15536,4.46734 -0.40061,8.32516 -0.0792,1.24647 -0.18736,3.51507 -0.24028,5.04136 -0.0529,1.52628 -0.11839,3.02481 -0.14551,3.33006 -0.16226,1.82612 -0.2233,7.07639 -0.0823,7.07639 0.0144,0 0.3519,-0.12968 0.75003,-0.28816 z" id="path854"/>
  </g>
</svg>